<svg width="74" height="76" viewBox="0 0 74 76" fill="none" xmlns="http://www.w3.org/2000/svg">
<g filter="url(#filter0_f_386_14497)">
<path d="M5.05134 38.0002C5.05134 55.795 19.3187 70.2113 36.9069 70.2113C54.4951 70.2113 68.7625 55.795 68.7625 38.0002C68.7625 20.2053 54.4951 5.78906 36.9069 5.78906C19.3187 5.78906 5.05134 20.2053 5.05134 38.0002Z" stroke="white"/>
</g>
<g filter="url(#filter1_b_386_14497)">
<circle cx="32" cy="32" r="32" transform="matrix(-1 0 0 1 69 6)" fill="url(#paint0_radial_386_14497)" fill-opacity="0.2"/>
<circle cx="32" cy="32" r="31.5" transform="matrix(-1 0 0 1 69 6)" stroke="white"/>
</g>
<path d="M39.0407 29.4655L31.4983 37.008C30.9428 37.5634 30.9428 38.4639 31.4983 39.0193L39.0407 46.5618" stroke="white" stroke-width="2" stroke-linecap="round" stroke-linejoin="round"/>
<defs>
<filter id="filter0_f_386_14497" x="0.142503" y="0.880174" width="73.5288" height="74.2397" filterUnits="userSpaceOnUse" color-interpolation-filters="sRGB">
<feFlood flood-opacity="0" result="BackgroundImageFix"/>
<feBlend mode="normal" in="SourceGraphic" in2="BackgroundImageFix" result="shape"/>
<feGaussianBlur stdDeviation="2.20444" result="effect1_foregroundBlur_386_14497"/>
</filter>
<filter id="filter1_b_386_14497" x="-10" y="-9" width="94" height="94" filterUnits="userSpaceOnUse" color-interpolation-filters="sRGB">
<feFlood flood-opacity="0" result="BackgroundImageFix"/>
<feGaussianBlur in="BackgroundImageFix" stdDeviation="7.5"/>
<feComposite in2="SourceAlpha" operator="in" result="effect1_backgroundBlur_386_14497"/>
<feBlend mode="normal" in="SourceGraphic" in2="effect1_backgroundBlur_386_14497" result="shape"/>
</filter>
<radialGradient id="paint0_radial_386_14497" cx="0" cy="0" r="1" gradientUnits="userSpaceOnUse" gradientTransform="translate(32 32) rotate(90) scale(32)">
<stop stop-color="white" stop-opacity="0"/>
<stop offset="1" stop-color="white"/>
</radialGradient>
</defs>
</svg>
