<svg width="30" height="30" viewBox="0 0 30 30" fill="none" xmlns="http://www.w3.org/2000/svg">
<path d="M28.381 11.9305L26.8795 10.4317C26.6964 10.2492 26.5512 10.0323 26.4524 9.79353C26.3535 9.55471 26.3028 9.29869 26.3033 9.04021V7.28434C26.3022 6.21606 25.8775 5.19182 25.1222 4.4363C24.367 3.68078 23.3429 3.25567 22.2746 3.25421H20.5187C19.9978 3.25281 19.4984 3.04633 19.1286 2.67946L17.6285 1.17796C16.8722 0.423623 15.8476 0 14.7795 0C13.7113 0 12.6867 0.423623 11.9305 1.17796L10.4317 2.67946C10.0615 3.04667 9.56168 3.25359 9.04021 3.25559H7.28296C6.21468 3.25704 5.19059 3.68216 4.43533 4.43768C3.68007 5.1932 3.2553 6.21743 3.25421 7.28571V9.04021C3.25489 9.29859 3.20446 9.55456 3.10582 9.79337C3.00718 10.0322 2.86228 10.2491 2.67946 10.4317L1.17796 11.9305C0.423623 12.6867 0 13.7113 0 14.7795C0 15.8476 0.423623 16.8722 1.17796 17.6285L2.67946 19.1272C2.86253 19.3097 3.00768 19.5266 3.10656 19.7654C3.20544 20.0042 3.25609 20.2602 3.25559 20.5187V22.2746C3.25668 23.3429 3.68144 24.3671 4.4367 25.1226C5.19197 25.8781 6.21606 26.3033 7.28434 26.3047H9.04021C9.56132 26.3065 10.0608 26.5135 10.4303 26.8808L11.9305 28.381C12.6866 29.1356 13.7112 29.5595 14.7795 29.5595C15.8477 29.5595 16.8724 29.1356 17.6285 28.381L19.1272 26.8808C19.4975 26.5136 19.9972 26.3067 20.5187 26.3047H22.276C23.3442 26.3033 24.3683 25.8781 25.1236 25.1226C25.8789 24.3671 26.3036 23.3429 26.3047 22.2746V20.5187C26.3042 20.2602 26.3549 20.0042 26.4537 19.7654C26.5526 19.5266 26.6978 19.3097 26.8808 19.1272L28.381 17.6285C29.1353 16.8722 29.5589 15.8476 29.5589 14.7795C29.5589 13.7113 29.1353 12.6867 28.381 11.9305ZM19.6332 12.7555L14.1332 18.2555C14.0377 18.3514 13.9241 18.4276 13.799 18.4795C13.674 18.5315 13.5399 18.5582 13.4045 18.5582C13.269 18.5582 13.135 18.5315 13.0099 18.4795C12.8848 18.4276 12.7713 18.3514 12.6757 18.2555L9.92571 15.5055C9.74355 15.31 9.64438 15.0514 9.6491 14.7842C9.65381 14.5171 9.76204 14.2622 9.95098 14.0732C10.1399 13.8843 10.3948 13.7761 10.662 13.7713C10.9292 13.7666 11.1877 13.8658 11.3832 14.048L13.4045 16.0706L18.1757 11.3007C18.3712 11.1186 18.6298 11.0194 18.8969 11.0241C19.1641 11.0288 19.419 11.137 19.6079 11.326C19.7969 11.5149 19.9051 11.7698 19.9098 12.037C19.9145 12.3042 19.8154 12.5627 19.6332 12.7582V12.7555Z" fill="#469DDD"/>
</svg>
