<svg width="108" height="108" viewBox="0 0 108 108" fill="none" xmlns="http://www.w3.org/2000/svg">
<g opacity="0.5" filter="url(#filter0_f_92_4132)">
<ellipse cx="54" cy="54" rx="26" ry="26" transform="rotate(90 54 54)" fill="#469DDD"/>
</g>
<path fill-rule="evenodd" clip-rule="evenodd" d="M80 54C80 68.3594 68.3594 80 54 80C39.6406 80 28 68.3594 28 54C28 39.6406 39.6406 28 54 28C68.3594 28 80 39.6406 80 54ZM45.9193 53.4929C45.2846 52.8583 45.2846 51.8294 45.9193 51.1948C46.5539 50.5602 47.5827 50.5602 48.2174 51.1948L54.0137 56.9911L59.81 51.1948C60.4446 50.5602 61.4735 50.5602 62.1081 51.1948C62.7427 51.8294 62.7427 52.8583 62.1081 53.4929L55.9798 59.6211C54.8939 60.707 53.1334 60.707 52.0475 59.6211L45.9193 53.4929Z" fill="#469DDD"/>
<defs>
<filter id="filter0_f_92_4132" x="0.212482" y="0.212482" width="107.575" height="107.575" filterUnits="userSpaceOnUse" color-interpolation-filters="sRGB">
<feFlood flood-opacity="0" result="BackgroundImageFix"/>
<feBlend mode="normal" in="SourceGraphic" in2="BackgroundImageFix" result="shape"/>
<feGaussianBlur stdDeviation="13.8938" result="effect1_foregroundBlur_92_4132"/>
</filter>
</defs>
</svg>
