<?xml version="1.0" encoding="UTF-8"?> <svg xmlns="http://www.w3.org/2000/svg" width="60" height="60" viewBox="0 0 60 60" fill="none"> <circle cx="30" cy="30" r="29" stroke="white" stroke-opacity="0.2" stroke-width="2"></circle> <path d="M35.8438 19.4375H24.9062C21.8859 19.4375 19.4375 21.8859 19.4375 24.9062V35.8438C19.4375 38.8641 21.8859 41.3125 24.9062 41.3125H35.8438C38.8641 41.3125 41.3125 38.8641 41.3125 35.8438V24.9062C41.3125 21.8859 38.8641 19.4375 35.8438 19.4375Z" fill="white"></path> <path d="M34.7496 29.6859C34.8845 30.5962 34.7291 31.5258 34.3052 32.3426C33.8814 33.1594 33.2108 33.8218 32.3888 34.2355C31.5669 34.6493 30.6354 34.7933 29.7268 34.6471C28.8183 34.5009 27.979 34.0719 27.3283 33.4212C26.6776 32.7705 26.2486 31.9312 26.1024 31.0227C25.9562 30.1142 26.1003 29.1827 26.514 28.3607C26.9277 27.5387 27.5901 26.8681 28.4069 26.4443C29.2237 26.0205 30.1534 25.865 31.0636 26C31.9921 26.1376 32.8517 26.5703 33.5155 27.234C34.1792 27.8978 34.6119 28.7574 34.7496 29.6859Z" fill="#469DDD"></path> <path d="M36.3906 24.3594H36.4016" stroke="#469DDD" stroke-width="2" stroke-linecap="round" stroke-linejoin="round"></path> </svg> 