<?xml version="1.0" encoding="UTF-8"?> <svg xmlns="http://www.w3.org/2000/svg" width="140" height="38" viewBox="0 0 140 38" fill="none"> <g clip-path="url(#clip0_112_48)"> <path d="M0 17.9436V0.308615H3.61518V2.86569V6.7454L3.85766 10.6031V17.9436H0ZM7.69328 13.5349C6.69692 13.5189 5.72287 13.2374 4.87167 12.7193C4.02376 12.1958 3.35494 11.4271 2.95387 10.5149C2.44503 9.32535 2.2042 8.03843 2.24846 6.7454C2.20134 5.45638 2.42669 4.17191 2.90978 2.97591C3.29642 2.06144 3.95925 1.2907 4.80554 0.771534C5.70018 0.271246 6.71262 0.0200388 7.73737 0.0440892C8.90129 0.0254858 10.0495 0.31444 11.066 0.881753C12.0243 1.43318 12.8163 2.23277 13.3585 3.19635C13.9538 4.27459 14.2506 5.49214 14.2182 6.72335C14.2513 7.96166 13.9546 9.1865 13.3585 10.2724C12.8092 11.2512 12.0007 12.0597 11.0219 12.609C10.0054 13.1764 8.8572 13.4653 7.69328 13.4467V13.5349ZM7.07605 10.2724C7.67095 10.2787 8.25681 10.1266 8.77342 9.83153C9.26994 9.52948 9.67998 9.10425 9.96379 8.59707C10.2669 7.99614 10.4183 7.33013 10.4047 6.65722C10.421 5.98403 10.2695 5.31736 9.96379 4.71737C9.658 4.26572 9.24025 3.90114 8.75138 3.65927C8.24993 3.33704 7.67161 3.15442 7.07605 3.13022C6.48154 3.127 5.89648 3.27897 5.37868 3.57109C4.87328 3.85198 4.45988 4.27303 4.18832 4.7835C3.86567 5.37799 3.70596 6.04723 3.7254 6.72335C3.70804 7.39926 3.86761 8.06797 4.18832 8.66321C4.46616 9.17477 4.87755 9.6014 5.37868 9.89766C5.9027 10.1668 6.48742 10.2959 7.07605 10.2724Z" fill="#1D71B8"></path> <path d="M16.7305 13.2483V0.198395H20.3016V3.92379L19.7946 2.8216C20.134 1.88558 20.7992 1.10307 21.6683 0.617226C22.6226 0.106391 23.6945 -0.144481 24.7764 -0.110218V3.41679C24.6376 3.39561 24.4964 3.39561 24.3576 3.41679H23.9608C23.0326 3.36513 22.1216 3.68202 21.4258 4.29854C21.0824 4.6695 20.8206 5.10836 20.6573 5.58678C20.4941 6.0652 20.4329 6.57255 20.4779 7.07605V13.2483H16.7305Z" fill="#1D71B8"></path> <path d="M33.1524 13.4467C31.8624 13.4446 30.5947 13.1106 29.4711 12.4768C28.4378 11.9826 27.5551 11.2216 26.914 10.2724C26.2929 9.22593 25.9725 8.02836 25.9882 6.81152C25.9592 5.60833 26.2681 4.4211 26.8799 3.38463C27.4916 2.34816 28.3817 1.50396 29.4491 0.947878C30.5977 0.381988 31.861 0.087677 33.1414 0.087677C34.4218 0.087677 35.6851 0.381988 36.8337 0.947878C37.8841 1.49788 38.7673 2.32015 39.3908 3.32861C40.0082 4.38373 40.3211 5.58933 40.2946 6.81152C40.3013 7.98146 39.9834 9.13033 39.3763 10.1305C38.7693 11.1306 37.8968 11.9428 36.8558 12.4768C35.7253 13.1133 34.4498 13.4474 33.1524 13.4467ZM33.1524 10.3385C33.7457 10.3548 34.3322 10.2101 34.8498 9.91969C35.3623 9.62805 35.7766 9.19072 36.0402 8.6632C36.3609 8.06797 36.5204 7.39925 36.5031 6.72335C36.5225 6.04722 36.3628 5.37798 36.0402 4.7835C35.7611 4.30096 35.3475 3.91027 34.8498 3.65926C34.3409 3.36503 33.7623 3.21277 33.1745 3.21839C32.5796 3.21205 31.9937 3.36422 31.4771 3.65926C30.9669 3.93377 30.5518 4.35649 30.2867 4.87167C29.9641 5.46616 29.8044 6.1354 29.8238 6.81152C29.8065 7.48743 29.966 8.15614 30.2867 8.75137C30.5503 9.27889 30.9646 9.71622 31.4771 10.0079C32.0033 10.2392 32.5805 10.3304 33.1524 10.2724V10.3385Z" fill="#1D71B8"></path> <path d="M59.5607 -9.43244e-06C60.5078 -0.0122254 61.4443 0.199249 62.2942 0.617216C63.1076 1.03702 63.7701 1.69958 64.1899 2.51298C64.6874 3.55749 64.922 4.70775 64.8733 5.86363V13.2483H61.0818V6.37064C61.1437 5.54142 60.918 4.71618 60.4425 4.034C60.2192 3.77834 59.94 3.5777 59.6264 3.44769C59.3129 3.31769 58.9736 3.26185 58.6349 3.28451C58.1108 3.27422 57.5935 3.40356 57.1359 3.65926C56.6856 3.91494 56.3299 4.30927 56.1219 4.78349C55.8627 5.38842 55.7422 6.04372 55.7692 6.7013V13.3144H51.9997V6.37064C52.0668 5.53765 51.832 4.70832 51.3384 4.034C51.1106 3.7721 50.8241 3.56771 50.5023 3.43747C50.1806 3.30723 49.8326 3.25482 49.4867 3.28451C48.9704 3.28014 48.4616 3.40923 48.0098 3.65926C47.5595 3.91494 47.2038 4.30927 46.9958 4.78349C46.729 5.38668 46.6009 6.04205 46.6211 6.7013V13.3144H42.8516V0.198385H46.4667V3.65926L45.7834 2.64524C46.1861 1.77937 46.8592 1.06768 47.7012 0.617216C48.5658 0.144313 49.5374 -0.0985816 50.5228 -0.0881844C51.644 -0.112956 52.7453 0.210506 53.6751 0.837654C54.1621 1.15911 54.5804 1.57404 54.9058 2.0584C55.2312 2.54275 55.4573 3.08689 55.5708 3.65926L54.2261 3.28451C54.6654 2.29041 55.3955 1.4527 56.3203 0.881742C57.2934 0.28287 58.4184 -0.0232342 59.5607 -9.43244e-06Z" fill="#1D71B8"></path> <path d="M75.1465 17.9436V0.308605H78.7617V2.86568V6.74539L79.0041 10.603V17.9436H75.1465ZM82.8398 13.5349C81.8362 13.5568 80.8456 13.3054 79.9741 12.8074C79.1198 12.2853 78.4435 11.5168 78.0342 10.603C77.5474 9.40757 77.3147 8.12386 77.3509 6.83356C77.3037 5.54454 77.5291 4.26008 78.0122 3.06408C78.391 2.14476 79.0557 1.37183 79.9079 0.859699C80.8026 0.359411 81.815 0.108204 82.8398 0.132255C84.0037 0.113651 85.1519 0.402605 86.1684 0.969918C87.1388 1.53991 87.9441 2.35282 88.505 3.3286C89.1003 4.40684 89.397 5.62439 89.3647 6.85561C89.3747 8.04927 89.0787 9.22559 88.505 10.2724C87.9436 11.242 87.1379 12.0476 86.1684 12.609C85.1519 13.1763 84.0037 13.4653 82.8398 13.4467V13.5349ZM82.2005 10.2724C82.7954 10.2787 83.3812 10.1266 83.8979 9.83152C84.393 9.53476 84.7971 9.10776 85.0662 8.59706C85.3869 8.00183 85.5465 7.33312 85.5291 6.65721C85.5485 5.98109 85.3888 5.31185 85.0662 4.71736C84.7798 4.26535 84.3759 3.89962 83.8979 3.65926C83.379 3.36968 82.7947 3.21766 82.2005 3.21766C81.6063 3.21766 81.022 3.36968 80.5031 3.65926C79.9929 3.93377 79.5779 4.35649 79.3128 4.87167C78.9901 5.46616 78.8304 6.13539 78.8498 6.81152C78.8325 7.48743 78.9921 8.15614 79.3128 8.75137C79.584 9.26777 79.9969 9.69602 80.5031 9.98582C81.0343 10.2275 81.6194 10.3263 82.2005 10.2724Z" fill="#1D71B8"></path> <path d="M91.877 13.2483V0.198381H95.4921V3.92378L94.9851 2.82159C95.3156 1.88714 95.9734 1.10404 96.8368 0.617212C97.8002 0.109352 98.8784 -0.141213 99.967 -0.110232V3.41677C99.8282 3.3956 99.687 3.3956 99.5482 3.41677H99.1514C98.2171 3.36874 97.3005 3.6848 96.5943 4.29852C96.2593 4.67426 96.0045 5.11435 95.8453 5.5919C95.6861 6.06946 95.6259 6.57445 95.6685 7.07604V13.2483H91.877Z" fill="#1D71B8"></path> <path d="M108.3 13.4467C107.01 13.4476 105.741 13.1134 104.619 12.4768C103.594 11.9793 102.719 11.2186 102.084 10.2724C101.463 9.22594 101.142 8.02837 101.158 6.81153C101.129 5.60834 101.438 4.42112 102.05 3.38464C102.662 2.34817 103.552 1.50397 104.619 0.947891C105.755 0.359599 107.021 0.06411 108.3 0.0881841C109.587 0.064145 110.859 0.35953 112.004 0.947891C113.051 1.49384 113.928 2.31748 114.539 3.32862C115.164 4.38149 115.484 5.58724 115.465 6.81153C115.488 8.02938 115.167 9.22916 114.539 10.2724C113.909 11.2237 113.033 11.9857 112.004 12.4768C110.873 13.1134 109.598 13.4474 108.3 13.4467ZM108.3 10.3385C108.894 10.3548 109.48 10.2101 109.998 9.91971C110.51 9.62806 110.924 9.19073 111.188 8.66321C111.509 8.06798 111.668 7.39927 111.651 6.72336C111.67 6.04724 111.511 5.378 111.188 4.78351C110.909 4.30097 110.495 3.91028 109.998 3.65928C109.489 3.36504 108.91 3.21279 108.322 3.2184C107.727 3.21206 107.142 3.36423 106.625 3.65928C106.114 3.9398 105.693 4.3604 105.413 4.87168C105.107 5.47168 104.955 6.13834 104.972 6.81153C104.958 7.48445 105.109 8.15046 105.413 8.75139C105.691 9.27532 106.111 9.71062 106.625 10.0079C107.151 10.2392 107.728 10.3304 108.3 10.2724V10.3385Z" fill="#1D71B8"></path> <path d="M134.709 -9.43244e-06C135.656 -0.00975885 136.592 0.201588 137.443 0.617216C138.256 1.03702 138.919 1.69958 139.338 2.51298C139.828 3.5594 140.055 4.70957 140 5.86363V13.2483H136.23V6.37064C136.292 5.54142 136.066 4.71618 135.591 4.034C135.368 3.77834 135.088 3.5777 134.775 3.44769C134.461 3.31769 134.122 3.26185 133.783 3.28451C133.259 3.27422 132.742 3.40356 132.284 3.65926C131.834 3.91494 131.478 4.30927 131.27 4.78349C131.011 5.38842 130.891 6.04372 130.918 6.7013V13.3144H127.126V6.37064C127.199 5.54036 126.973 4.7113 126.487 4.034C126.259 3.7721 125.973 3.56771 125.651 3.43747C125.329 3.30723 124.981 3.25482 124.635 3.28451C124.119 3.28014 123.61 3.40923 123.158 3.65926C122.708 3.91494 122.352 4.30927 122.144 4.78349C121.877 5.38668 121.749 6.04205 121.769 6.7013V13.3144H118V0.198385H121.703V3.65926L121.02 2.64524C121.423 1.77937 122.096 1.06768 122.938 0.617216C123.802 0.144313 124.774 -0.0985816 125.759 -0.0881844C126.881 -0.112956 127.982 0.210506 128.912 0.837654C129.829 1.51973 130.445 2.53139 130.631 3.65926L129.286 3.28451C129.755 2.27479 130.525 1.43528 131.491 0.881742C132.458 0.286944 133.574 -0.0189999 134.709 -9.43244e-06Z" fill="#1D71B8"></path> <path d="M1.74069 25.9455C15.684 21.6717 30.3852 20.4558 44.8412 22.3807C59.2972 24.3057 73.1679 29.3262 85.507 37.0997C87.006 38.0476 88.3948 35.6668 86.8958 34.7189C74.2309 26.7429 59.994 21.5938 45.1571 19.6231C30.3203 17.6525 15.2329 18.9068 0.925069 23.3003C-0.772302 23.8293 -0.0448571 26.4746 1.65251 25.9455H1.74069Z" fill="#009FE3"></path> <g opacity="0.59"> <path d="M52.4199 36.1077C64.8523 27.8273 79.3008 23.0801 94.2216 22.3735C109.142 21.6668 123.975 25.0273 137.134 32.0957C138.677 32.9554 140.066 30.5747 138.523 29.715C124.955 22.4225 109.665 18.9444 94.2779 19.6508C78.891 20.3573 63.9834 25.2219 51.1413 33.727C49.6644 34.6969 51.1413 37.0997 52.5301 36.1077H52.4199Z" fill="#009FE3"></path> </g> </g> <defs> <clipPath id="clip0_112_48"> <rect width="140" height="37.2981" fill="white"></rect> </clipPath> </defs> </svg> 