<svg width="28" height="27" viewBox="0 0 28 27" fill="none" xmlns="http://www.w3.org/2000/svg">
<path fill-rule="evenodd" clip-rule="evenodd" d="M20.1945 26.5314C18.2969 26.4616 12.9188 25.7183 7.28641 20.0872C1.65534 14.4548 0.913399 9.07811 0.842237 7.17912C0.73681 4.28517 2.9534 1.47425 5.51393 0.376498C5.82228 0.243354 6.15993 0.192662 6.49378 0.229396C6.82762 0.266131 7.14618 0.389029 7.41819 0.586032C9.52672 2.12262 10.9816 4.44727 12.2309 6.27509C12.5058 6.67667 12.6233 7.16535 12.5611 7.648C12.4989 8.13065 12.2613 8.57355 11.8935 8.8923L9.32246 10.8018C9.19824 10.8915 9.1108 11.0233 9.07639 11.1726C9.04197 11.3219 9.06291 11.4786 9.13532 11.6136C9.7178 12.6718 10.7536 14.2479 11.9397 15.434C13.1257 16.62 14.7769 17.7244 15.909 18.3727C16.0509 18.4524 16.218 18.4747 16.3758 18.435C16.5337 18.3953 16.6703 18.2966 16.7576 18.1593L18.4313 15.6119C18.739 15.2032 19.1929 14.9294 19.6979 14.8478C20.203 14.7662 20.72 14.8833 21.1407 15.1744C22.9949 16.4579 25.1588 17.8878 26.7428 19.9159C26.9558 20.1899 27.0913 20.5161 27.1351 20.8603C27.1789 21.2046 27.1295 21.5543 26.9919 21.8729C25.8889 24.4466 23.0977 26.6382 20.1945 26.5314Z" fill="#464646"/>
</svg>
